<svg width="21" height="20" viewBox="0 0 21 20" fill="none" xmlns="http://www.w3.org/2000/svg">
<path fill-rule="evenodd" clip-rule="evenodd" d="M16.3333 1.66667C16.6023 2.91924 17.5807 3.89769 18.8333 4.16667C17.5807 4.43564 16.6023 5.4141 16.3333 6.66667C16.0643 5.4141 15.0859 4.43564 13.8333 4.16667C15.0859 3.89769 16.0643 2.91924 16.3333 1.66667ZM8.06 1.83334C8.81958 5.3706 11.5827 8.13375 15.12 8.89334C11.5827 9.65292 8.81958 12.4161 8.06 15.9533C7.30042 12.4161 4.53726 9.65292 1 8.89334C4.53726 8.13375 7.30042 5.3706 8.06 1.83334ZM18.8333 15C17.1632 14.6414 15.8586 13.3368 15.5 11.6667C15.1413 13.3368 13.8367 14.6414 12.1666 15C13.8367 15.3586 15.1413 16.6632 15.5 18.3333C15.8586 16.6632 17.1632 15.3586 18.8333 15Z" fill="#387FF5"/>
</svg>
