<svg width="55" height="55" viewBox="0 0 55 55" fill="none" xmlns="http://www.w3.org/2000/svg">
  <circle cx="27.5" cy="27.5" r="27.5" fill="currentColor" opacity="0.1"/>
  <circle cx="27.5" cy="27.5" r="24" fill="currentColor" opacity="0.15"/>
  <circle cx="27.5" cy="27.5" r="20" fill="currentColor"/>
  <path d="M27.5 12C19.044 12 12 19.044 12 27.5C12 35.956 19.044 43 27.5 43C35.956 43 43 35.956 43 27.5C43 19.044 35.956 12 27.5 12ZM27.5 40C20.596 40 15 34.404 15 27.5C15 20.596 20.596 15 27.5 15C34.404 15 40 20.596 40 27.5C40 34.404 34.404 40 27.5 40Z" fill="currentColor" opacity="0.2"/>
  <path d="M27.5 16C21.149 16 16 21.149 16 27.5C16 33.851 21.149 39 27.5 39C33.851 39 39 33.851 39 27.5C39 21.149 33.851 16 27.5 16ZM27.5 36C22.813 36 19 32.187 19 27.5C19 22.813 22.813 19 27.5 19C32.187 19 36 22.813 36 27.5C36 32.187 32.187 36 27.5 36Z" fill="currentColor" opacity="0.3"/>
  <path d="M27.5 20C23.916 20 21 22.916 21 26.5C21 30.084 23.916 33 27.5 33C31.084 33 34 30.084 34 26.5C34 22.916 31.084 20 27.5 20Z" fill="currentColor" opacity="0.4"/>
  <path d="M27.5 22C25.015 22 23 24.015 23 26.5C23 28.985 25.015 31 27.5 31C29.985 31 32 28.985 32 26.5C32 24.015 29.985 22 27.5 22Z" fill="currentColor"/>
  <path d="M27.5 24.5C27.5 24.5 25.5 24.5 25.5 26.5C25.5 28.5 27.5 28.5 27.5 28.5C27.5 28.5 29.5 28.5 29.5 26.5C29.5 24.5 27.5 24.5 27.5 24.5Z" fill="currentColor" opacity="0.6"/>
</svg>

